HIERARCHY
ROOT Hips
{
	OFFSET	0.00	0.00	0.00
	CHANNELS 6 Xposition Yposition Zposition Zrotation Xrotation Yrotation
	JOINT LeftUpLeg
	{
		OFFSET	 0.126116	-0.065224	 0.014019
		CHANNELS 3 Zrotation Xrotation Yrotation
		JOINT LeftLeg
		{
			OFFSET	 0.000000	 0.569914	 0.000000
			CHANNELS 3 Zrotation Xrotation Yrotation
			JOINT LeftFoot
			{
				OFFSET	 0.000000	 0.544423	 0.000000
				CHANNELS 3 Zrotation Xrotation Yrotation
				JOINT LeftToeBase
				{
					OFFSET	 0.000000	 0.207117	 0.000000
					CHANNELS 3 Zrotation Xrotation Yrotation
					End Site
					{
						OFFSET	 0.000000	 0.207117	 0.000000
					}
				}
			}
		}
	}
	JOINT RightUpLeg
	{
		OFFSET	-0.124023	-0.065224	 0.008373
		CHANNELS 3 Zrotation Xrotation Yrotation
		JOINT RightLeg
		{
			OFFSET	 0.000000	 0.570047	 0.000000
			CHANNELS 3 Zrotation Xrotation Yrotation
			JOINT RightFoot
			{
				OFFSET	 0.000000	 0.544354	 0.000000
				CHANNELS 3 Zrotation Xrotation Yrotation
				JOINT RightToeBase
				{
					OFFSET	 0.000000	 0.207540	 0.000000
					CHANNELS 3 Zrotation Xrotation Yrotation
					End Site
					{
						OFFSET	 0.000000	 0.207540	 0.000000
					}
				}
			}
		}
	}
	JOINT Spine
	{
		OFFSET	 0.000184	 0.117403	 0.007763
		CHANNELS 3 Zrotation Xrotation Yrotation
		JOINT Spine1
		{
			OFFSET	 0.000000	 0.137269	 0.000000
			CHANNELS 3 Zrotation Xrotation Yrotation
			JOINT Spine2
			{
				OFFSET	 0.000000	 0.156879	 0.000000
				CHANNELS 3 Zrotation Xrotation Yrotation
				JOINT LeftShoulder
				{
					OFFSET	 0.080501	 0.160143	 0.002496
					CHANNELS 3 Zrotation Xrotation Yrotation
					JOINT LeftArm
					{
						OFFSET	 0.000000	 0.164363	 0.000000
						CHANNELS 3 Zrotation Xrotation Yrotation
						JOINT LeftForeArm
						{
							OFFSET	 0.000000	 0.364576	 0.000000
							CHANNELS 3 Zrotation Xrotation Yrotation
							JOINT LeftHand
							{
								OFFSET	 0.000000	 0.360812	 0.000000
								CHANNELS 3 Zrotation Xrotation Yrotation
								JOINT LeftHandIndex1
								{
									OFFSET	 0.000000	 0.086006	 0.000000
									CHANNELS 3 Zrotation Xrotation Yrotation
									JOINT LeftHandIndex2
									{
										OFFSET	 0.000000	 0.047237	 0.000000
										CHANNELS 3 Zrotation Xrotation Yrotation
										JOINT LeftHandIndex3
										{
											OFFSET	-0.004284	 0.038165	 0.000551
											CHANNELS 3 Zrotation Xrotation Yrotation
											End Site
											{
												OFFSET	-0.004284	 0.038165	 0.000551
											}
										}
									}
								}
							}
						}
					}
				}
				JOINT Neck
				{
					OFFSET	 0.000000	 0.176489	 0.000000
					CHANNELS 3 Zrotation Xrotation Yrotation
					JOINT Head
					{
						OFFSET	 0.000000	 0.077941	 0.001747
						CHANNELS 3 Zrotation Xrotation Yrotation
						End Site
						{
							OFFSET	 0.000000	 0.077941	 0.001747
						}
					}
				}
				JOINT RightShoulder
				{
					OFFSET	-0.080363	 0.159706	-0.000306
					CHANNELS 3 Zrotation Xrotation Yrotation
					JOINT RightArm
					{
						OFFSET	 0.000000	 0.164196	 0.000000
						CHANNELS 3 Zrotation Xrotation Yrotation
						JOINT RightForeArm
						{
							OFFSET	 0.000000	 0.365611	 0.000000
							CHANNELS 3 Zrotation Xrotation Yrotation
							JOINT RightHand
							{
								OFFSET	 0.000000	 0.360648	 0.000000
								CHANNELS 3 Zrotation Xrotation Yrotation
								JOINT RightHandIndex1
								{
									OFFSET	 0.000000	 0.069977	 0.000000
									CHANNELS 3 Zrotation Xrotation Yrotation
									JOINT RightHandIndex2
									{
										OFFSET	 0.000000	 0.052305	 0.000000
										CHANNELS 3 Zrotation Xrotation Yrotation
										JOINT RightHandIndex3
										{
											OFFSET	 0.009002	 0.042196	 0.000782
											CHANNELS 3 Zrotation Xrotation Yrotation
											End Site
											{
												OFFSET	 0.009002	 0.042196	 0.000782
											}
										}
									}
								}
							}
						}
					}
				}
			}
		}
	}
}
MOTION
Frames:    13
Frame Time: 0.03333334
-0.002122	 1.271036	 0.046400	 0.302723	 1.998754	 177.694700	 176.509800	 4.942427	 10.182450	 3.501332	-17.189120	 2.848932	-3.997797	 70.862130	 6.822612	 1.331492	 28.938720	-2.729976	-176.239300	 6.840135	-9.274276	-4.585899	-14.776510	-7.358283	-1.419502	 66.491890	 1.219597	-1.309169	 28.627120	 2.400621	-0.782720	 3.996226	 1.414573	-0.811967	 0.234832	 2.830592	-0.346100	 1.562827	-10.572080	-113.435100	 5.422224	 92.956050	 3.940628	 49.385390	 39.038920	 33.098140	-1.219241	-5.368787	-12.626940	-5.231182	 5.707179	-6.580301	 5.266122	 0.000000	 0.000000	 0.000000	 0.000000	 0.000000	 0.000000	 0.000000	 5.004262	-0.498895	 0.272176	 1.562764	 2.149678	 0.254191	 114.286700	-4.879968	-88.062130	-58.570980	 16.937380	 42.606040	-101.007100	-1.907494	 3.134698	-19.617050	-16.378940	-47.093680	-0.366176	 10.766790	 0.745726	 11.980200	 9.497725	-2.134856	-8.361085	 3.250058	 0.097852
 0.004716	 1.270805	 0.050426	 0.227489	 2.187032	 178.417300	 176.663400	 4.963711	 10.893930	 3.495765	-17.163430	 3.236797	-3.347396	 70.703450	 5.773049	 1.331492	 28.938720	-2.729976	-176.129200	 6.787003	-8.619137	-4.540694	-14.637440	-7.341531	-1.609721	 66.381890	 1.247319	-1.302736	 28.543780	 2.554112	-0.706196	 4.278690	 1.170070	-0.689151	 0.231447	 2.899599	-0.588068	 2.203360	-10.424300	-113.437200	 5.474731	 93.006430	 4.057507	 50.651710	 37.570690	 32.333630	-1.163963	-5.712337	-9.962121	-4.672585	 5.680691	-6.580301	 5.266122	 0.000000	 0.000000	 0.000000	 0.000000	 0.000000	 0.000000	 0.000000	 5.179424	-0.403737	-0.008863	 3.189761	 1.765893	-0.347467	 114.277100	-4.811581	-88.096910	-50.953060	 19.047610	 17.193200	-115.198800	-1.717825	 2.927081	-8.906916	-13.473250	-43.488230	-0.458913	 13.404090	 0.765161	 12.028870	 12.078320	-2.693419	-8.387745	 4.673438	 0.006973
 0.011791	 1.270402	 0.054315	 0.122056	 2.375818	 179.127300	 176.766700	 5.053955	 11.595060	 3.498950	-17.178130	 3.620548	-2.728154	 70.512860	 4.755474	 1.331492	 28.938720	-2.729976	-176.029100	 6.809184	-7.980798	-4.532562	-14.612370	-7.331023	-1.764436	 66.307300	 1.262252	-1.296192	 28.462140	 2.704381	-0.645365	 4.539581	 1.065371	-0.774508	 0.358054	 3.152296	-0.744776	 2.697219	-10.105870	-113.439400	 5.526188	 93.055820	 7.083133	 52.990380	 33.831040	 28.725910	-0.982301	-6.114502	-6.558836	-4.292541	 5.694596	-6.580301	 5.266122	 0.000000	 0.000000	 0.000000	 0.000000	 0.000000	 0.000000	 0.000000	 5.351483	-0.311344	-0.284479	 4.775887	 1.381684	-0.882413	 114.267700	-4.744568	-88.131000	-49.083460	 18.370300	-6.953916	-119.365100	-1.626787	 3.088134	-6.953730	-12.921880	-40.015760	-0.551770	 15.988050	 0.788737	 12.102260	 14.606160	-3.248701	-8.411723	 6.068011	-0.081625
 0.016405	 1.269963	 0.057806	-0.104043	 2.488129	 179.905900	 176.648800	 5.251941	 12.465720	 3.466711	-17.029210	 4.314220	-1.146824	 70.222620	 2.777508	 1.331492	 28.938720	-2.729976	-176.056400	 7.064607	-7.057977	-4.648412	-14.968550	-7.149626	-1.491541	 66.507680	 0.809405	-1.293428	 28.429850	 2.792766	-0.599348	 4.614752	 0.617611	-0.865911	 0.984322	 3.118758	-0.957596	 2.422244	-9.669581	-113.440500	 5.395919	 93.019170	 11.543860	 54.884490	 30.283160	 24.793710	-0.781156	-6.493074	-2.752155	-5.274001	 4.693711	-6.580301	 5.266122	 0.000000	 0.000000	 0.000000	 0.000000	 0.000000	 0.000000	 0.000000	 5.118430	-0.257519	-0.456783	 5.095910	 1.074125	-1.182399	 114.252100	-4.637375	-88.196830	-41.535530	 24.980950	-17.689450	-115.963400	-1.673948	 3.492878	 1.838039	-13.417790	-26.200910	-0.661420	 18.955330	 0.821667	 12.219380	 17.508050	-3.899335	-8.434818	 7.543877	-0.175026
 0.019658	 1.269453	 0.060972	-0.364722	 2.573834	-179.313700	 176.433300	 5.505088	 13.364780	 3.424173	-16.832340	 5.084724	 0.653196	 69.851440	 0.606697	 1.331492	 28.938720	-2.729976	-176.131100	 7.413075	-6.077255	-4.823425	-15.504210	-6.935186	-1.074181	 66.831050	 0.231120	-1.291814	 28.412210	 2.861671	-0.560568	 4.632971	-0.036055	-0.954481	 1.731978	 2.927325	-1.183945	 1.918821	-9.057595	-113.441500	 5.217328	 92.959090	 18.819070	 56.851430	 24.730360	 18.825850	-0.476339	-6.876993	 1.714314	-6.673247	 3.046535	-6.580301	 5.266122	 0.000000	 0.000000	 0.000000	 0.000000	 0.000000	 0.000000	 0.000000	 4.776355	-0.214922	-0.595719	 5.049842	 0.801341	-1.373687	 114.235200	-4.521247	-88.270110	-29.515480	 29.572210	-23.710720	-107.738400	-1.780162	 4.061306	 6.478462	-7.222087	-6.073590	-0.776690	 21.964780	 0.861969	 12.376170	 20.449710	-4.577369	-8.455428	 9.009242	-0.267511
 0.021554	 1.268912	 0.063860	-0.522814	 2.710894	-179.056400	 176.329900	 5.603842	 13.693590	 3.408616	-16.760240	 5.476287	 1.506428	 69.635520	-0.452822	 1.331492	 28.938720	-2.729976	-176.131700	 7.690426	-5.706296	-4.989379	-16.009440	-7.109967	-1.492624	 67.109180	 0.620663	-1.291057	 28.405110	 2.914272	-0.514426	 4.650087	-1.027887	-1.014161	 2.252225	 2.461762	-1.342112	 1.518846	-8.193213	-113.442900	 5.085693	 92.922070	 22.035840	 57.309190	 22.641440	 17.049140	-0.371864	-7.155441	 3.212897	-7.733525	 0.649945	-6.580301	 5.266122	 0.000000	 0.000000	 0.000000	 0.000000	 0.000000	 0.000000	 0.000000	 4.450795	-0.174535	-0.707559	 4.961228	 0.658610	-1.411669	 114.220700	-4.421153	-88.333880	-20.588440	 32.784190	-30.420860	-96.862430	-1.858092	 4.727879	 6.595874	-0.665729	 9.324963	-0.839106	 23.543760	 0.886109	 12.474680	 21.992400	-4.941969	-8.465407	 9.785361	-0.316436
 0.021490	 1.268107	 0.066439	-0.457686	 3.004903	 179.858100	 176.524300	 5.476321	 12.572840	 3.477371	-17.078460	 4.905407	-0.062996	 69.763080	 1.234417	 1.331492	 28.938720	-2.729976	-175.827500	 7.829237	-6.900970	-5.141918	-16.471520	-8.289787	-4.277026	 67.195680	 3.592517	-1.292530	 28.424890	 2.928773	-0.462904	 4.690466	-2.152922	-1.124867	 2.572618	 1.963865	-1.293299	 1.263678	-6.970100	-113.444900	 5.065475	 92.942010	 17.336200	 55.478950	 27.562910	 23.505120	-0.669035	-7.274348	-1.727728	-7.571403	-1.944334	-6.580301	 5.266122	 0.000000	 0.000000	 0.000000	 0.000000	 0.000000	 0.000000	 0.000000	 4.140791	-0.138193	-0.758542	 4.762087	 0.835193	-1.144554	 114.211000	-4.354568	-88.378270	-15.807260	 35.760330	-38.383270	-80.461580	-1.831007	 5.604202	 3.120687	-4.358058	 15.617760	-0.759631	 21.526930	 0.855647	 12.350880	 20.021840	-4.477395	-8.453021	 8.828794	-0.256142
 0.020906	 1.267546	 0.068708	-0.370770	 3.278409	 178.826400	 176.722400	 5.273861	 11.504430	 3.525840	-17.302020	 4.361070	-1.503803	 69.871700	 2.826983	 1.331492	 28.938720	-2.729976	-175.569100	 7.889150	-8.032969	-5.258900	-16.824330	-9.383346	-6.860315	 67.224670	 6.368265	-1.293939	 28.443730	 2.942585	-0.401980	 4.725154	-3.524063	-1.153203	 2.732244	 1.264514	-1.276045	 1.085608	-5.570185	-113.446700	 5.046254	 92.961030	 13.466050	 53.488990	 31.625730	 29.046510	-0.911295	-7.363926	-6.186985	-7.295264	-5.250717	-6.580301	 5.266122	 0.000000	 0.000000	 0.000000	 0.000000	 0.000000	 0.000000	 0.000000	 3.845655	-0.103335	-0.806901	 4.573349	 1.001580	-0.830926	 114.201800	-4.291119	-88.420540	-16.904280	 42.273560	-41.802190	-55.671100	-1.458718	 6.717152	-2.458777	-6.701244	 19.567850	-0.685983	 19.606480	 0.829774	 12.249990	 18.144680	-4.044309	-8.440311	 7.918010	-0.198676
 0.020571	 1.267446	 0.069834	-0.331521	 3.428615	 178.297200	 176.824300	 5.111285	 10.977990	 3.525522	-17.300650	 4.043083	-2.300549	 69.844990	 3.726951	 1.331492	 28.938720	-2.729976	-175.469100	 7.831907	-8.606769	-5.279774	-16.887120	-9.761157	-7.792564	 67.175510	 7.336019	-1.295808	 28.467690	 2.938550	-0.357723	 4.680638	-4.827921	-1.165703	 3.019914	 0.679268	-1.257285	 0.683308	-3.938149	-113.447700	 5.016579	 92.962810	 12.125120	 52.885050	 33.259570	 31.147330	-0.991706	-7.509336	-8.690364	-7.700684	-8.915277	-6.580301	 5.266122	 0.000000	 0.000000	 0.000000	 0.000000	 0.000000	 0.000000	 0.000000	 3.663541	-0.138471	-0.821602	 4.397571	 1.061287	-0.404628	 114.196300	-4.253536	-88.447520	-22.448010	 49.034950	-39.265130	-34.433120	-0.861791	 7.504187	-8.514843	-7.605274	 20.155170	-0.630699	 18.133910	 0.811893	 12.183360	 16.704870	-3.717591	-8.429342	 7.179084	-0.151989
 0.020629	 1.267533	 0.070165	-0.349790	 3.459501	 178.273900	 176.815100	 5.053166	 11.000360	 3.507432	-17.217260	 3.958537	-2.490539	 69.768440	 3.945203	 1.331492	 28.938720	-2.729976	-175.491800	 7.794138	-8.627153	-5.273139	-16.867150	-9.441634	-7.057751	 67.149930	 6.509970	-1.298180	 28.497470	 2.915989	-0.333457	 4.548467	-6.252346	-1.284340	 3.451593	 0.026030	-1.170152	 0.029805	-2.082381	-113.447900	 4.975510	 92.946940	 11.624840	 53.029670	 33.861250	 31.655750	-1.001483	-7.683611	-10.169840	-8.667340	-13.326270	-6.580301	 5.266122	 0.000000	 0.000000	 0.000000	 0.000000	 0.000000	 0.000000	 0.000000	 3.594076	-0.246893	-0.802108	 4.229560	 1.006104	 0.134112	 114.194300	-4.241861	-88.459270	-23.079500	 51.096120	-38.434310	-29.513930	-0.688016	 7.794055	-11.265580	-7.088094	 18.030940	-0.592067	 17.089920	 0.800202	 12.141580	 15.683910	-3.488471	-8.420351	 6.600964	-0.115407
 0.020561	 1.267790	 0.070471	-0.312967	 3.467570	 178.229500	 176.860100	 5.010582	 11.002660	 3.486386	-17.120130	 3.877886	-2.656775	 69.684740	 4.144751	 1.331492	 28.938720	-2.729976	-175.497800	 7.700350	-8.662091	-5.215353	-16.693150	-9.122627	-6.344818	 67.046980	 5.701660	-1.300396	 28.525420	 2.894809	-0.281800	 4.417531	-7.636236	-1.273177	 3.805584	-0.597121	-1.136176	-0.560338	-0.212765	-113.448100	 4.936952	 92.931990	 11.272980	 53.288640	 34.348960	 31.980060	-1.004172	-7.845508	-11.674480	-9.529847	-17.757980	-6.580301	 5.266122	 0.000000	 0.000000	 0.000000	 0.000000	 0.000000	 0.000000	 0.000000	 3.528910	-0.348679	-0.783930	 4.070798	 0.937386	 0.671877	 114.192400	-4.230847	-88.470310	-22.346190	 52.621140	-38.682800	-26.714750	-0.582117	 8.016128	-12.849220	-6.790443	 15.636770	-0.556187	 16.109680	 0.789950	 12.106380	 14.725150	-3.275050	-8.411583	 6.058287	-0.081021
 0.020460	 1.268081	 0.070721	-0.272005	 3.474985	 178.188000	 176.908400	 4.962012	 11.005300	 3.463194	-17.012950	 3.800205	-2.807125	 69.597740	 4.331145	 1.331492	 28.938720	-2.729976	-175.507700	 7.589244	-8.692943	-5.149197	-16.493510	-8.812517	-5.665251	 66.934610	 4.927309	-1.302492	 28.552000	 2.874672	-0.227018	 4.297924	-8.974684	-1.239433	 4.123209	-1.195489	-1.105075	-1.100699	 1.630667	-113.448300	 4.900280	 92.917790	 10.943820	 53.561470	 34.816520	 32.280510	-1.006745	-7.994327	-13.225580	-10.250530	-22.124590	-6.580301	 5.266122	 0.000000	 0.000000	 0.000000	 0.000000	 0.000000	 0.000000	 0.000000	 3.466994	-0.445453	-0.766758	 3.919162	 0.854740	 1.199774	 114.190600	-4.220414	-88.480780	-20.472540	 53.646120	-39.866260	-25.712670	-0.538664	 8.190081	-13.370640	-6.645071	 13.139820	-0.522401	 15.177700	 0.780838	 12.076460	 13.813490	-3.073543	-8.402952	 5.542410	-0.048287
 0.020368	 1.268329	 0.070884	-0.249434	 3.486279	 178.161200	 176.938200	 4.905932	 11.014800	 3.439727	-16.904400	 3.732985	-2.928892	 69.515910	 4.486602	 1.331492	 28.938720	-2.729976	-175.527200	 7.491254	-8.711030	-5.097071	-16.335910	-8.547120	-5.089914	 66.847950	 4.270121	-1.304266	 28.574600	 2.857541	-0.149675	 4.178002	-10.110730	-1.305307	 4.418554	-1.697613	-1.026445	-1.551876	 3.206232	-113.448500	 4.869099	 92.905730	 10.643460	 53.778400	 35.232970	 32.559140	-1.010185	-8.116105	-14.605600	-10.755350	-25.856810	-6.580301	 5.266122	 0.000000	 0.000000	 0.000000	 0.000000	 0.000000	 0.000000	 0.000000	 3.414353	-0.527779	-0.752235	 3.789855	 0.770918	 1.650813	 114.189100	-4.211535	-88.489720	-18.262410	 54.228400	-41.388690	-25.820260	-0.535861	 8.317353	-13.163870	-6.615963	 10.965910	-0.493897	 14.384950	 0.773565	 12.053690	 13.037960	-2.903127	-8.395384	 5.103624	-0.020404
